# xmcd
#
# Track frame offsets: 
#        150
#        12207
#        26192
#        40473
#        55249
#        67134
#        80458
#        91911
#        105932
#        121755
#        136431
#        147013
#        153909
#        178384
#
# Disc length: 2568 seconds
#
# Revision: 0
# Processed by: cddbd v1.5.2PL0 Copyright (c) Steve Scherf et al.
# Submitted via: ExactAudioCopyFreeDBPlugin 1.0
#
DISCID=ba0a060e
DTITLE=Frank sinatra - Hello Frank - Come Dance With Me
DYEAR=2015
DGENRE=Blues
TTITLE0=LOVE AND MARRIAGE
TTITLE1=MY HEART TELLS ME
TTITLE2=NEVERTHELESS
TTITLE3=DEEP NIGHT
TTITLE4=IT HAPPENED IN MONTEREY
TTITLE5=YOU MAKE ME FEEL SO YOUNG
TTITLE6=COME DANCE WITH ME
TTITLE7=SEPTEMBER SONG
TTITLE8=SHAKE DOWN THE STARS
TTITLE9=PEOPLE WILL SAY WE'RE IN LOVE
TTITLE10=SPEAK LOW
TTITLE11=SOMEBODY LOVES ME
TTITLE12=PORGY AND BESS MEDLEY
TTITLE13=STARDUST
EXTD=
EXTT0=
EXTT1=
EXTT2=
EXTT3=
EXTT4=
EXTT5=
EXTT6=
EXTT7=
EXTT8=
EXTT9=
EXTT10=
EXTT11=
EXTT12=
EXTT13=
PLAYORDER=
